<?xml version="1.0" standalone="no"?>
<!DOCTYPE svg PUBLIC "-//W3C//DTD SVG 20010904//EN"
 "http://www.w3.org/TR/2001/REC-SVG-20010904/DTD/svg10.dtd">
<svg version="1.0" xmlns="http://www.w3.org/2000/svg"
 width="148.000000pt" height="148.000000pt" viewBox="0 0 148.000000 148.000000"
 preserveAspectRatio="xMidYMid meet">

<g transform="translate(0.000000,148.000000) scale(0.100000,-0.100000)"
fill="#000000" stroke="none">
<path d="M274 1415 c-16 -24 -15 -27 11 -61 15 -19 29 -33 32 -30 3 3 -4 17
-16 32 -24 30 -26 45 -9 62 9 9 19 5 45 -20 38 -37 43 -31 11 12 -27 37 -52
38 -74 5z"/>
<path d="M196 1344 c-21 -21 -20 -24 15 -62 29 -33 31 -33 50 -16 21 19 25 64
7 82 -17 17 -54 15 -72 -4z m55 -4 c23 -13 25 -43 4 -60 -12 -10 -18 -8 -35
11 -27 34 -25 50 8 58 2 1 12 -4 23 -9z"/>
<path d="M125 1269 c-9 -29 7 -44 33 -30 29 15 42 14 42 -5 0 -9 -9 -18 -20
-21 -22 -6 -27 -23 -7 -23 16 0 47 32 47 48 0 18 -34 32 -51 21 -7 -5 -19 -9
-26 -9 -18 0 -4 28 15 33 12 3 11 5 -5 6 -14 1 -24 -7 -28 -20z"/>
<path d="M668 1179 c-21 -22 -53 -45 -71 -51 -150 -52 -295 -233 -322 -403
-14 -85 32 -227 97 -301 37 -42 172 -137 218 -153 19 -6 75 -13 125 -16 l90
-4 -85 9 c-117 12 -166 28 -205 64 -55 52 -66 144 -30 237 4 12 -4 22 -32 36
-114 59 -145 213 -62 307 81 92 238 104 325 24 21 -19 22 -19 47 5 56 51 183
63 257 24 147 -78 152 -278 10 -359 -31 -18 -38 -27 -33 -43 13 -42 18 -122
10 -156 -12 -48 -45 -84 -98 -109 -24 -11 -38 -20 -31 -20 30 0 148 76 215
139 67 63 99 134 112 247 12 108 -66 278 -173 377 -51 47 -160 107 -194 107
-22 0 -40 33 -31 56 6 16 2 16 -31 -4 -46 -27 -46 -27 -46 3 0 35 -17 31 -62
-16z"/>
<path d="M60 1166 c0 -2 8 -10 18 -17 15 -13 16 -12 3 4 -13 16 -21 21 -21 13z"/>
<path d="M494 899 c-18 -5 -46 -25 -62 -44 -55 -61 -55 -149 -1 -210 75 -85
214 -64 260 40 17 38 24 45 49 45 24 0 30 -6 40 -35 23 -71 106 -116 186 -101
53 11 111 73 119 130 10 67 -24 133 -85 164 -24 12 -56 22 -70 22 -50 0 -113
-42 -140 -92 -22 -42 -29 -48 -57 -48 -24 0 -33 5 -33 16 0 33 -43 86 -84 105
-45 20 -74 22 -122 8z m118 -49 c54 -25 73 -110 38 -167 -35 -58 -102 -72
-163 -34 -80 49 -76 159 8 209 23 14 78 10 117 -8z m386 -5 c64 -54 67 -131 6
-184 -28 -25 -44 -31 -80 -31 -39 0 -51 5 -80 34 -30 30 -35 41 -33 78 2 44
20 84 48 105 9 6 19 9 23 7 4 -2 9 0 13 6 12 19 73 11 103 -15z"/>
<path d="M479 821 c-35 -28 -33 -91 4 -125 15 -14 27 -21 27 -16 0 5 6 7 13 4
24 -9 66 14 81 45 39 74 -59 146 -125 92z m48 -17 c7 -18 -17 -38 -31 -24 -11
11 -1 40 14 40 6 0 13 -7 17 -16z"/>
<path d="M918 840 c-15 -4 -30 -5 -33 -1 -4 3 -5 1 -4 -4 2 -5 -2 -20 -9 -32
-12 -21 -13 -103 -2 -100 3 1 16 -5 29 -12 31 -17 86 -6 106 22 18 26 20 84 2
101 -12 13 -53 37 -59 35 -2 0 -15 -4 -30 -9z m22 -40 c0 -4 -6 -13 -14 -19
-18 -15 -41 10 -25 26 12 12 39 7 39 -7z"/>
<path d="M974 664 c-18 -14 -18 -15 4 -4 12 6 22 13 22 15 0 8 -5 6 -26 -11z"/>
<path d="M664 576 c-10 -8 -15 -20 -11 -30 10 -25 38 -32 53 -12 24 33 -9 66
-42 42z"/>
<path d="M774 576 c-10 -8 -15 -20 -11 -30 10 -25 38 -32 53 -12 24 33 -9 66
-42 42z"/>
<path d="M718 378 c6 -6 18 -8 28 -6 14 3 12 5 -9 10 -19 3 -25 2 -19 -4z"/>
<path d="M828 263 c6 -2 18 -2 25 0 6 3 1 5 -13 5 -14 0 -19 -2 -12 -5z"/>
</g>
</svg>
